<?xml version="1.0" encoding="UTF-8"?> <svg xmlns="http://www.w3.org/2000/svg" viewBox="0 0 48.99 29.98"><path d="M19.3 29.9c-.6-.7-1.3-1.4-1.9-2.1l-1.2-1.3c-.3-.3-.6-.7-.9-1l-.1-.1c-.4-.4-.8-.9-1.2-1.3-.7-.8-1.5-1.6-2.2-2.4l-.3-.3-.2-.2c-.8-.9-1.7-1.8-2.5-2.7s-1.4-1.6-2.1-2.3a15 15 0 0 1-1.1-1.3c-.3-.3-.6-.7-.9-1-.1-.1-.2-.3-.4-.4-1.1-1.2-2.2-2.4-3.2-3.6a3.81 3.81 0 0 0-.9-1.3.76.76 0 0 1-.2-.4.52.52 0 0 1 .2-.4c.9-.9 1.8-1.7 2.7-2.6H3c1-.9 1.9-1.8 2.8-2.7C6.6 1.8 7.4 1 8.2.2a1.45 1.45 0 0 1 .7-.2h31.2a1.09 1.09 0 0 1 .9.4c1.7 1.6 3.3 3.2 5 4.8a5 5 0 0 0 .8.7c.7.6 1.3 1.2 2 1.9a.42.42 0 0 1 0 .7c-1.2 1.4-2.5 2.7-3.7 4.1l-.1.1c-.2.3-.5.5-.7.8l-2.1 2.4-.1.1-2 2.2c-.7.8-1.4 1.5-2.1 2.3l-.4.5c-.6.7-1.3 1.4-1.9 2.1-1.5 1.6-2.9 3.2-4.3 4.8-.5.6-1 1.2-1.6 1.8-.1.1-.2.2-.3.2s-.2-.1-.3-.2l-2.6-2.9a17.41 17.41 0 0 1-1.2-1.4c-.2-.2-.3-.4-.5-.6a.1.1 0 0 0-.1-.1c-.1-.1-.1-.1-.2-.1s-.2.1-.3.2c-.9 1.1-1.9 2.1-2.9 3.2-.3.3-.5.6-.7.8s-.6.7-.9 1c0 .1-.1.1-.2.1a.19.19 0 0 1-.3 0ZM9.3 3.3a5.47 5.47 0 0 0-1.1 1 2.65 2.65 0 0 1-.6.5L6.1 6.2c-.7.6-1.3 1.2-2 1.9 0 .1-.1.1-.1.2s.1.2.1.3c.4.4.8.9 1.2 1.3a4.62 4.62 0 0 0 .7.7l.5.6c1.2 1.4 2.5 2.8 3.8 4.2l2.4 2.6.1.1a34.82 34.82 0 0 1 2.4 2.7 5.72 5.72 0 0 0 .7.8c.2.2.4.5.6.7.5.6 1.1 1.2 1.6 1.8a15.38 15.38 0 0 0 1.2 1.3c.1.1.1.1.2.1s.1 0 .2-.1c.9-1 1.7-2 2.6-2.9a.38.38 0 0 0 0-.6c-.5-.5-1-1.1-1.5-1.6l-.1-.1c-.9-.9-1.6-1.8-2.4-2.7-1.3-1.5-2.7-3-4-4.5l-.3-.3-.7-.8-.4-.4-.4-.4V11l-2.4-2.7c-.1 0-.1 0-.1-.1s0-.1.1-.2c.7-.7 1.6-1.5 2.5-2.4.5-.5 1.1-1 1.6-1.5l.1-.1.7-.7v-.1H9.6c-.1-.1-.2 0-.3.1Zm25.6.9c.2.2.4.3.5.5 1.1 1.1 2.3 2.2 3.5 3.3.2.2.2.3 0 .5a12.67 12.67 0 0 0-1.1 1.3c-.4.5-.9 1-1.3 1.5-1.6 1.8-3.1 3.5-4.5 5-.7.7-1.3 1.4-2 2.2l-2 2.2a5.5 5.5 0 0 0-.7.9c-.2.2-.4.5-.6.7s-.2.3 0 .4c.9 1 1.8 1.9 2.6 2.9l.2.2c.1 0 .1 0 .2-.2l.1-.2c0-.1.1-.1.1-.2 1.5-1.7 3-3.4 4.6-5.1l.2-.2a20.36 20.36 0 0 0 1.5-1.7c.8-.9 1.7-1.9 2.6-3l.1-.1c.5-.6 1-1.1 1.5-1.7.3-.3.6-.7.9-1l.3-.3c1-1.1 2.1-2.3 3.1-3.5a.27.27 0 0 0 .3-.3c0-.1-.1-.2-.2-.4L42 5.4l-.1-.1c-.6-.6-1.2-1.2-1.9-1.8a1.61 1.61 0 0 0-.7-.4h-5.4a11 11 0 0 0 1 1.1Zm-15.7-.8c-.3.3-.7.6-1 .9l-.6.6a17.88 17.88 0 0 0-1.4 1.3l-.1.1-.1.1c-.6.6-1.2 1.1-1.8 1.7a.22.22 0 0 0-.2.2c0 .1.1.2.1.3.6.6 1.2 1.3 1.7 1.9l.1.1c.6.6 1.2 1.4 1.9 2.1l3 3.3c.6.7 1.4 1.5 2.1 2.3a17.38 17.38 0 0 1 1.3 1.5c.1.1.2.2.3.2s.2-.1.3-.2c.4-.5.9-1 1.3-1.5l.1-.1c.3-.3.5-.6.8-.9l.4-.4c1.6-1.7 3.2-3.6 4.8-5.4a10.63 10.63 0 0 0 .9-1.1c.5-.6 1.1-1.2 1.7-1.9.1.1.2 0 .2-.2s0-.2-.2-.3c-1.3-1.2-2.6-2.5-3.9-3.7l-.1-.1-.3-.3-.5-.5a1.14 1.14 0 0 0-.8-.3h-9.3a.91.91 0 0 0-.7.3Zm3.6 13a19.2 19.2 0 0 0-1.4-1.5c-.2-.2-.2-.3 0-.5.8-.9 1.6-1.7 2.4-2.6s1.8-2.1 2.8-3.1c.2-.3.2-.4 0-.6-1.1-1-2.2-2.1-3.3-3.1-.2-.2-.3-.3-.3-.5h3.8c.4 0 .7.5 1 .8 1 .9 1.9 1.8 2.9 2.7.2.2.1.3 0 .4-.5.6-1 1.1-1.5 1.7-1.3 1.5-2.6 2.9-3.9 4.3-.6.7-1.2 1.3-1.8 2-.1.2-.2.2-.3.2s-.3 0-.4-.2Z" style="fill:#c9a236"></path></svg> 